<?xml version="1.0" standalone="no"?>
<!DOCTYPE svg PUBLIC "-//W3C//DTD SVG 1.1//EN" "http://www.w3.org/Graphics/SVG/1.1/DTD/svg11.dtd" >
<svg xmlns="http://www.w3.org/2000/svg">
<metadata>Generated by IcoMoon</metadata>
<defs>
<font id="icomoon" horiz-adv-x="1024">
<font-face units-per-em="1024" ascent="960" descent="-64" />
<missing-glyph horiz-adv-x="1024" />
<glyph unicode="&#x20;" horiz-adv-x="512" d="" />
<glyph unicode="&#xe900;" glyph-name="web_icon_a-tail" d="M691.314 737.564l-14.62-53.077c-14.62 49.38-57.344 76.572-123.221 76.572-169.586 0-301.34-170.382-301.34-387.698 0-139.548 67.129-221.013 183.012-221.013 21.959 0 47.559 4.949 67.072 11.093 37.831 13.596 59.79 30.891 92.729 74.069 0-3.698 0-6.201 0-7.396 0-54.329 39.026-86.414 103.708-86.414 46.364 0 102.457 17.294 150.073 46.933 111.047 69.12 175.673 196.324 175.673 343.268 0 254.35-190.293 425.984-473.316 425.984-165.945 0-304.981-55.58-408.69-161.735-95.175-96.427-142.791-217.429-142.791-360.619 0-139.548 47.559-264.249 135.396-354.361 93.924-96.313 228.124-146.944 387.925-146.944 78.052 0 156.16 12.345 228.124 35.783 53.703 17.294 85.39 33.337 151.268 72.875l-63.431 93.867c-48.811-35.783-74.411-49.38-115.883-64.228-56.092-20.992-129.308-33.337-196.437-33.337-243.996 0-411.136 159.289-411.136 393.899 0 243.257 185.458 421.035 439.182 421.035 215.95 0 361.131-132.096 361.131-329.671 0-103.708-41.472-196.324-109.796-246.955-29.298-20.992-67.072-37.035-89.031-37.035s-34.19 11.093-34.19 30.891c0 11.093 1.195 22.244 4.892 35.783l82.944 314.88c13.426 50.631 23.211 83.968 32.939 113.607h-112.185zM559.559 664.69c47.559 0 71.964-32.085 71.964-95.061 0-75.321-28.046-171.634-67.072-232.164-34.19-50.631-80.498-82.716-120.775-82.716-51.257 0-76.857 38.286-76.857 113.607 0 49.38 12.174 109.909 31.744 159.289 36.58 88.917 93.924 137.045 160.996 137.045z" />
<glyph unicode="&#xe901;" glyph-name="web_icon_camera" d="M512 647.396c-125.383 0-227.044-101.831-227.044-227.442s101.66-227.442 227.044-227.442c125.383 0 226.987 101.831 226.987 227.442 0.057 125.611-101.604 227.442-226.987 227.442zM512 306.062c-62.635 0-113.38 50.916-113.38 113.721s50.745 113.721 113.38 113.721c62.635 0 113.38-50.916 113.38-113.721s-50.745-113.721-113.38-113.721zM853.333 760.889c0 94.265-76.402 170.667-170.667 170.667h-341.333c-94.265 0-170.667-76.402-170.667-170.667-94.265 0-170.667-76.402-170.667-170.667v-455.111c0-94.265 76.402-170.667 170.667-170.667h682.667c94.265 0 170.667 76.402 170.667 170.667v455.111c0 94.265-76.402 170.667-170.667 170.667zM910.222 192c0-62.862-50.916-113.778-113.778-113.778h-568.889c-62.862 0-113.778 50.916-113.778 113.778v341.333c0 62.862 50.916 113.778 113.778 113.778h56.889v56.889c0 62.862 50.916 113.778 113.778 113.778h227.556c62.862 0 113.778-50.916 113.778-113.778v-56.889h56.889c62.862 0 113.778-50.916 113.778-113.778v-341.333z" />
<glyph unicode="&#xe902;" glyph-name="web_icon_more" d="M170.667 533.333c-47.104 0-85.333-38.229-85.333-85.333s38.229-85.333 85.333-85.333c47.104 0 85.333 38.229 85.333 85.333s-38.229 85.333-85.333 85.333zM512 533.333c-47.104 0-85.333-38.229-85.333-85.333s38.229-85.333 85.333-85.333c47.104 0 85.333 38.229 85.333 85.333s-38.229 85.333-85.333 85.333zM853.333 533.333c-47.104 0-85.333-38.229-85.333-85.333s38.229-85.333 85.333-85.333c47.104 0 85.333 38.229 85.333 85.333s-38.229 85.333-85.333 85.333z" />
<glyph unicode="&#xe903;" glyph-name="web_icon_expression" d="M683.236 354.645c-41.472-62.066-104.277-97.621-172.203-97.621-67.243 0-129.65 34.987-171.122 95.972-10.581 15.588-30.094 18.261-43.52 6.087-13.483-12.117-15.815-34.532-5.291-50.062 53.305-78.393 133.518-123.392 219.932-123.392 87.381 0 168.107 45.739 221.412 125.554 10.468 15.588 7.851 38.002-5.689 50.062-13.653 12.004-33.109 9.045-43.52-6.599zM342.073 448c31.346 0 56.775 22.869 56.775 51.086v68.096c0 28.217-25.372 51.086-56.775 51.086s-56.775-22.869-56.775-51.086v-68.096c0-28.217 25.372-51.086 56.775-51.086zM512 960c-282.795 0-512-229.205-512-512s229.205-512 512-512c282.795 0 512 229.205 512 512s-229.205 512-512 512zM512 49.778c-219.932 0-398.222 178.29-398.222 398.222s178.29 398.222 398.222 398.222c219.932 0 398.222-178.29 398.222-398.222s-178.29-398.222-398.222-398.222zM683.406 618.268c-31.403 0-56.775-22.869-56.775-51.086v-68.096c0-28.217 25.372-51.086 56.775-51.086 31.346 0 56.775 22.869 56.775 51.086v68.096c0 28.217-25.429 51.086-56.775 51.086z" />
<glyph unicode="&#xe904;" glyph-name="web_icon_speech" d="M265.273 658.204c-19.285 16.213-49.152 14.848-66.674-3.015-17.465-17.863-15.986-45.454 3.3-61.724 44.203-37.092 69.575-90.169 69.575-145.579 0-55.353-25.429-108.487-69.86-145.692-10.297-8.647-15.474-20.48-15.474-32.37 0-10.468 4.039-20.935 12.231-29.298 17.522-17.863 47.388-19.172 66.731-3.015 64.057 53.76 100.807 130.389 100.807 210.375 0 80.043-36.693 156.729-100.636 210.318zM444.188 802.076c-18.375 17.067-48.242 17.18-66.731 0.171-18.489-16.953-18.546-44.658-0.171-61.724 83.968-78.108 130.219-181.988 130.219-292.58 0-110.421-46.308-214.3-130.446-292.523-9.159-8.476-13.767-19.627-13.767-30.777 0-11.207 4.608-22.414 13.938-30.948 18.489-17.010 48.356-16.953 66.731 0.171 101.831 94.663 157.924 220.444 157.924 354.076 0 133.803-56.036 259.584-157.696 354.133zM621.568 946.574c-18.034 17.408-47.9 17.977-66.731 1.252-18.83-16.668-19.399-44.316-1.365-61.724 122.539-118.158 190.009-273.806 190.009-438.215 0-164.124-67.584-319.659-190.236-438.044-8.761-8.476-13.141-19.342-13.141-30.208 0-11.435 4.836-22.926 14.507-31.516 18.773-16.668 48.697-16.1 66.731 1.308 139.605 134.713 216.462 311.751 216.462 498.46 0.057 187.108-76.743 364.203-216.235 498.688z" />
<glyph unicode="&#xe905;" glyph-name="web_icon_topic" d="M967.111 732.444h-114.916l22.869 85.447c8.135 30.322-9.899 61.554-40.22 69.689v0c-30.322 8.135-61.554-9.899-69.689-40.22l-30.72-114.916h-292.409l22.926 85.561c8.135 30.322-9.899 61.554-40.22 69.689-30.379 8.135-61.554-9.899-69.689-40.22l-30.834-115.029h-153.543c-31.403 0-56.889-25.486-56.889-56.889s25.486-56.889 56.889-56.889h123.051l-91.477-341.333h-145.351c-31.403 0-56.889-25.486-56.889-56.889s25.486-56.889 56.889-56.889h114.916l-22.869-85.39c-8.135-30.322 9.899-61.554 40.22-69.689 30.379-8.135 61.554 9.899 69.689 40.22l30.72 114.859h292.409l-22.926-85.561c-8.135-30.379 9.899-61.554 40.22-69.689v0c30.322-8.135 61.554 9.899 69.689 40.22l30.834 115.029h153.543c31.403 0 56.889 25.486 56.889 56.889s-25.486 56.889-56.889 56.889h-123.051l91.477 341.333h145.351c31.403 0 56.889 25.486 56.889 56.889s-25.486 56.889-56.889 56.889zM612.466 277.333h-292.409l91.477 341.333h292.409l-91.477-341.333z" />
<glyph unicode="&#xe906;" glyph-name="web_icon_picture" d="M626.005 505.401c-119.694 0-171.008-285.298-171.008-285.298s-18.716 113.209-114.005 114.119c-95.289 0.91-114.005-171.179-114.005-171.179h570.027c0 0-51.314 342.357-171.008 342.357zM853.333 960h-682.667c-94.265 0-170.667-76.402-170.667-170.667v-682.667c0-94.265 76.402-170.667 170.667-170.667h682.667c94.265 0 170.667 76.402 170.667 170.667v682.667c0 94.265-76.402 170.667-170.667 170.667zM910.222 163.556c0-62.862-50.972-113.778-113.778-113.778h-568.889c-62.862 0-113.778 50.916-113.778 113.778v568.889c0 62.862 50.916 113.778 113.778 113.778h568.889c62.805 0 113.778-50.916 113.778-113.778v-568.889zM370.347 505.116c47.161 0 85.39 38.286 85.39 85.504s-38.229 85.504-85.39 85.504c-47.161 0-85.39-38.286-85.39-85.504s38.229-85.504 85.39-85.504z" />
<glyph unicode="&#xe907;" glyph-name="web_icon_dudu" d="M442.787 848.384h-46.825c-9.263 0-18.106-1.769-26.205-4.794-153.879-9.309-276.666-183.529-276.666-397.777 0-220.16 129.583-398.662 289.42-398.662 21.923 0 43.241 3.537 63.767 9.961 37.143 1.722 66.746 30.115 66.746 65.21v101.935c0 36.166-31.465 65.536-70.237 65.536h-46.825c-35.142 0-64-24.157-69.167-55.575-28.439 26.159-46.685 63.674-46.685 105.937v178.735c0 49.99 25.135 93.789 63.069 119.296 12.893-13.777 31.651-22.714 52.783-22.714h46.825c38.819 0 70.237 29.324 70.237 65.536v101.935c0 36.119-31.418 65.443-70.237 65.443zM739.095 800.209l-1.303-2.42c-7.121 5.353-15.732 8.564-25.135 8.564-24.111 0-43.66-20.806-43.66-46.406 0-22.435 14.988-41.146 34.863-45.475 83.689-54.365 139.729-152.111 139.729-264.006 0-115.2-59.299-215.505-147.13-268.8l2.886-5.213c-9.588-8.518-15.825-21.178-15.825-35.468 0-25.647 19.549-46.406 43.66-46.406 16.198 0 30.161 9.495 37.702 23.412 100.073 72.378 166.028 194.095 166.028 332.521 0 149.923-77.359 280.483-191.814 349.696zM756.317 434.921c0 84.061-45.103 156.765-110.918 192.698l-3.91-7.168c-0.559 0.047-1.071 0.186-1.629 0.186-24.111 0-43.66-20.759-43.66-46.406 0-9.076 2.56-17.501 6.796-24.623l-1.35-2.513c1.908-0.931 3.584-2.141 5.446-3.212 5.12-6.237 11.729-10.938 19.316-13.591 25.926-22.668 42.589-56.832 42.589-95.372 0-38.353-16.477-72.564-42.263-95.232-17.641-5.958-30.487-23.319-30.487-44.032 0-25.647 19.549-46.406 43.66-46.406 6.097 0 11.916 1.35 17.222 3.77l1.536-2.793c58.461 38.028 97.652 106.403 97.652 184.692z" />
<glyph unicode="&#xe908;" glyph-name="web_icon_discover_selected" d="M201.159 203.264c-20.423-0.228-31.118-24.235-17.465-39.31 78.905-87.324 193.65-142.336 321.422-142.336 201.728 0 371.029 137.102 418.020 322.219 5.006 19.627-15.303 36.295-33.621 27.25-84.992-42.098-199.623-83.285-328.363-115.314-135.908-33.849-262.77-51.314-359.993-52.508zM536.69 357.547c226.475 56.377 411.364 131.982 469.22 187.449 14.45 13.824 21.106 26.396 18.375 37.092-5.689 22.357-50.972 32.996-122.311 32.654-65.65 152.633-218.624 259.641-396.857 259.641-238.137 0-431.104-190.919-431.104-426.382 0-14.62 0.74-29.127 2.219-43.406-53.020-29.81-81.692-57.116-76.516-77.54 2.617-10.354 13.824-18.204 32.142-23.609 76.174-22.528 276.651-2.731 504.832 54.101z" />
<glyph unicode="&#xe909;" glyph-name="web_icon_history-23" d="M512 908.8c-254.515 0-460.8-206.285-460.8-460.8s206.285-460.8 460.8-460.8c254.515 0 460.8 206.285 460.8 460.8s-206.285 460.8-460.8 460.8zM747.418 320c-14.131-24.474-45.466-32.87-69.939-18.739l-165.478 95.539c-28.262 0-51.2 22.938-51.2 51.2v256c0 28.262 22.938 51.2 51.2 51.2s51.2-22.938 51.2-51.2v-218.522l165.478-95.539c24.474-14.131 32.87-45.466 18.739-69.939z" />
<glyph unicode="&#xe90a;" glyph-name="web_icon_add_selected" d="M512 903.111c-251.335 0-455.111-203.776-455.111-455.111s203.776-455.111 455.111-455.111 455.111 203.776 455.111 455.111c0 251.335-203.776 455.111-455.111 455.111zM682.667 391.111h-113.778v-113.778c0-31.403-25.486-56.889-56.889-56.889s-56.889 25.486-56.889 56.889v113.778h-113.778c-31.403 0-56.889 25.486-56.889 56.889s25.486 56.889 56.889 56.889h113.778v113.778c0 31.403 25.486 56.889 56.889 56.889s56.889-25.486 56.889-56.889v-113.778h113.778c31.403 0 56.889-25.486 56.889-56.889s-25.486-56.889-56.889-56.889z" />
<glyph unicode="&#xe90b;" glyph-name="web_icon_screenshot" d="M227.214 475.079c-125.212 0-226.987-101.66-226.987-226.759s101.774-226.759 226.987-226.759c125.212 0 226.987 101.66 226.987 226.759s-101.888 226.759-226.987 226.759zM227.214 134.258c-62.976 0-114.176 51.2-114.176 114.062 0 62.919 51.2 114.062 114.176 114.062s114.176-51.2 114.176-114.062c0-62.919-51.2-114.062-114.176-114.062zM795.932 475.079c-125.668 0-227.84-101.66-227.84-226.759s102.172-226.759 227.84-226.759 227.84 101.66 227.84 226.759c0 125.099-102.229 226.759-227.84 226.759zM795.989 134.258c-62.521 0-113.436 51.2-113.436 114.062 0 62.919 50.859 114.062 113.436 114.062 62.521 0 113.436-51.2 113.436-114.062 0-62.919-50.916-114.062-113.436-114.062zM894.009 861.355c-18.489 17.465-48.412 17.465-66.901 0l-316.53-343.609-316.53 343.609c-18.489 17.465-48.412 17.465-66.901 0s-18.489-45.739 0-63.147l334.791-405.561c2.219-6.599 5.518-12.914 11.093-18.148 10.297-9.728 24.064-13.426 37.49-12.345 13.426-1.081 27.193 2.617 37.49 12.345 5.632 5.234 8.988 11.548 11.207 18.148l334.791 405.561c18.489 17.465 18.489 45.739 0 63.147z" />
<glyph unicode="&#xe90c;" glyph-name="web_icon_application_selected" d="M377.251 495.244h-243.2c-49.012 0-87.505 38.493-87.505 87.505v243.2c0 49.012 38.493 87.505 87.505 87.505h243.247c49.012 0 87.505-38.493 87.505-87.505v-243.247c-0.047-48.966-38.54-87.459-87.552-87.459zM889.949 495.244h-243.247c-49.012 0-87.505 38.493-87.505 87.505v243.2c0 49.012 38.493 87.505 87.505 87.505h243.247c49.012 0 87.505-38.493 87.505-87.505v-243.247c0-48.966-40.262-87.459-87.505-87.459zM377.251-17.455h-243.2c-49.012 0-87.505 38.493-87.505 87.505v243.247c0 49.012 38.493 87.505 87.505 87.505h243.247c49.012 0 87.505-38.493 87.505-87.505v-243.247c-0.047-47.244-38.54-87.505-87.552-87.505zM889.949-17.455h-243.247c-49.012 0-87.505 38.493-87.505 87.505v243.247c0 49.012 38.493 87.505 87.505 87.505h243.247c49.012 0 87.505-38.493 87.505-87.505v-243.247c0-47.244-40.262-87.505-87.505-87.505z" />
<glyph unicode="&#xe90d;" glyph-name="web_icon_sent_document" d="M471.78 540.9c-22.244-22.187-22.244-58.254 0-80.441l61.554-61.554h-248.889c-31.403 0-56.889-25.486-56.889-56.889s25.486-56.889 56.889-56.889h257.65l-69.803-70.258c-22.926-23.097-22.926-60.53 0-83.57 22.926-23.097 60.132-23.097 83.058 0l166.116 167.196c6.428 6.485 10.581 14.165 13.426 22.3 2.788 6.542 4.665 13.54 4.665 21.22 0 15.815-7.111 29.298-17.636 39.31-0.228 0.228-0.284 0.512-0.455 0.74-0.398 0.398-0.853 0.455-1.252 0.853-3.812 3.356-7.964 6.144-12.629 8.42-3.413 1.877-6.77 3.527-10.411 4.665l-144.953 144.896c-22.187 22.244-58.254 22.244-80.441 0zM967.111 797.127c31.403 0 56.889 25.486 56.889 56.889s-25.486 56.889-56.889 56.889h-284.444c-8.135 0-15.758-1.82-22.756-4.892l111.047-108.885h196.153zM853.333 740.238h-200.875l-153.828 153.828c-12.174 12.174-28.274 17.522-44.203 16.839h-283.762c-94.265 0-170.667-76.402-170.667-170.667v-625.778c0-94.265 76.402-170.667 170.667-170.667h682.667c94.265 0 170.667 76.402 170.667 170.667v512c0-10.126-1.024-19.968-2.731-29.582-13.141 81.18-83.058 143.36-167.936 143.36zM910.222 171.349c0-62.862-50.972-113.778-113.778-113.778h-568.889c-62.862 0-113.778 50.916-113.778 113.778v512c0 62.862 50.916 113.778 113.778 113.778h200.875l153.828-153.828c12.174-12.174 28.274-17.522 44.203-16.839h283.762v-455.111z" />
<glyph unicode="&#xe90e;" glyph-name="web_icon_mail_selected" d="M313.856 447.348l-195.351 195.677c-16.058 16.291-16.058 42.496 0 58.368 16.105 16.291 42.263 16.291 58.833 0l311.668-310.737c12.428-12.195 33.559-12.195 45.521 0l312.646 310.737c16.058 16.291 42.263 16.291 58.833 0 16.105-15.872 16.105-42.077 0-58.368l-195.817-195.724 195.817-194.327c16.105-16.337 16.105-42.636 0-58.88-16.524-15.919-42.729-15.919-58.833 0l-195.398 194.281-72.192-72.89c-17.455-16.756-41.425-27.183-67.631-27.183-26.159 0-50.083 10.845-67.537 28.020l-72.145 72.006-194.932-194.188c-16.57-15.919-42.729-15.919-58.833 0-16.058 16.244-16.058 42.543 0 58.88l195.351 194.327zM-0.559 161.001c0-47.104 38.167-85.178 85.551-85.178h854.575c46.871 0 85.039 38.028 85.039 85.178v573.952c0 47.104-38.121 85.178-85.039 85.178h-854.621c-47.337 0-85.551-38.074-85.551-85.178v-573.952z" />
<glyph unicode="&#xe90f;" glyph-name="web_icon_question" d="M611.73 832.183h-199.497c-187.246 0-339.090-147.712-339.090-329.947 0-147.273 99.218-271.872 236.105-314.331-6.985-15.762-13.093-66.962-16.677-87.808-3.95-56.722 56.905-33.573 79.799-19.419 0 0 87.186 85.65 219.429 91.611 7.022-0.622 12.471-0.475 17.262 0h2.67c187.282 0 339.127 147.712 339.127 329.947s-151.845 329.947-339.127 329.947zM512 283.611c-20.187 0-36.571 16.384-36.571 36.571s16.384 36.571 36.571 36.571 36.571-16.384 36.571-36.571-16.384-36.571-36.571-36.571zM580.059 488.741c-32.585-21.65-48.128-47.689-46.702-78.007v-17.335h-57.307v21.687c-1.426 41.874 16.969 75.849 55.186 101.851 39.607 28.891 58.697 57.783 57.307 86.674-4.242 40.411-26.88 62.098-67.913 65.024-49.554 0-80.64-28.928-93.403-86.674l-61.513 15.141c16.969 88.101 71.424 130.011 163.438 125.696 77.787-4.352 120.978-41.911 129.463-112.713 2.816-46.263-23.369-86.674-78.555-121.344z" />
<glyph unicode="&#xe910;" glyph-name="web_icon_message_selected" d="M512 960c-282.764 0-512-199.633-512-445.905 0-121.344 55.715-231.517 146.013-311.855 54.412-48.454 365.987-266.24 365.987-266.24v132.143c282.764 0 512 199.633 512 445.952 0 246.272-229.236 445.905-512 445.905zM258.932 445.487c-37.702 0-68.236 29.556-68.236 66.048 0 36.445 30.534 66.001 68.236 66.001s68.282-29.51 68.282-65.955c0-36.492-30.58-66.095-68.282-66.095zM514.001 445.487c-37.702 0-68.282 29.556-68.282 66.048 0 36.445 30.58 66.001 68.282 66.001s68.282-29.556 68.282-66.001c0-36.445-30.58-66.048-68.282-66.048zM771.072 445.487c-37.702 0-68.282 29.556-68.282 66.048 0 36.445 30.58 66.001 68.282 66.001 37.655 0 68.236-29.556 68.236-66.001-0.047-36.445-30.58-66.048-68.236-66.048z" />
<glyph unicode="&#xe911;" glyph-name="web_icon_help" d="M512 722.286c-141.385 0-256-114.615-256-256 0-87.698 44.142-165.047 111.397-211.163-0.658-2.743-1.682-5.339-1.682-8.265 0-20.187 16.384-36.571 36.571-36.571v-21.943c0-48.494 39.314-87.771 87.771-87.771h43.886c48.494 0 87.771 39.314 87.771 87.771v21.943c20.187 0 36.571 16.384 36.571 36.571 0 2.926-1.024 5.522-1.682 8.265 67.255 46.117 111.397 123.465 111.397 211.163 0 141.385-114.615 256-256 256zM146.286 502.857h-73.143c-20.187 0-36.571-16.384-36.571-36.571s16.384-36.571 36.571-36.571h73.143c20.187 0 36.571 16.384 36.571 36.571s-16.384 36.571-36.571 36.571zM950.857 502.857h-73.143c-20.187 0-36.571-16.384-36.571-36.571s16.384-36.571 36.571-36.571h73.143c20.187 0 36.571 16.384 36.571 36.571s-16.384 36.571-36.571 36.571zM512 795.429c20.187 0 36.571 16.384 36.571 36.571v73.143c0 20.187-16.384 36.571-36.571 36.571s-36.571-16.384-36.571-36.571v-73.143c0-20.187 16.384-36.571 36.571-36.571zM848.165 784.713c-14.299 14.299-37.449 14.299-51.712 0l-51.712-51.712c-14.299-14.299-14.299-37.449 0-51.712 14.299-14.299 37.449-14.299 51.712 0l51.712 51.712c14.263 14.263 14.263 37.449 0 51.712zM279.296 733.001l-51.712 51.712c-14.299 14.299-37.449 14.299-51.712 0s-14.299-37.449 0-51.712l51.712-51.712c14.299-14.299 37.449-14.299 51.712 0 14.299 14.263 14.299 37.413 0 51.712zM548.571 27.429h-73.143c-20.187 0-36.571-16.384-36.571-36.571s16.384-36.571 36.571-36.571h73.143c20.187 0 36.571 16.384 36.571 36.571s-16.384 36.571-36.571 36.571z" />
<glyph unicode="&#xe912;" glyph-name="web_icon_contacts_selected" d="M69.818 814.545v-733.091c0-67.491 60.276-122.182 139.636-122.182v977.455c-79.36 0-139.636-54.691-139.636-122.182zM834.513 936.727h-531.968v-977.455h531.968c66.141 0 119.668 54.691 119.668 122.182v733.091c0 67.491-53.574 122.182-119.668 122.182zM861.37 471.273l-82.991 65.629-103.75-65.629v371.852h186.74v-371.852z" />
<glyph unicode="&#xe913;" glyph-name="web_icon_mailbox" d="M837.193 485.12c-68.242-46.117-136.85-92.635-203.447-140.8-34.304-25.307-76.8-56.32-121.344-56.32h-0.805c-44.544 0-87.003 31.013-121.344 56.32-66.597 48.567-135.241 94.683-203.045 140.8-15.104 10.203-29.001 22.053-41.253 35.511v-324.059c0-35.913 29.403-65.317 65.353-65.317h601.381c35.95 0 65.353 29.403 65.353 65.317v0 324.059c-12.251-13.458-26.149-25.307-40.85-35.511zM216.21 538.953c63.342-44.069 127.451-88.101 190.793-132.571 26.551-18.359 71.497-55.881 104.594-55.881h0.805c33.097 0 78.043 37.522 104.594 55.881 63.342 44.471 127.488 88.539 191.195 132.571 35.95 24.869 69.851 66.085 69.851 111.762 0 35.913-29.842 65.28-65.353 65.28h-601.381c-43.703 0-65.353-34.267-65.353-74.24 0-37.157 41.253-83.237 70.254-102.802z" />
<glyph unicode="&#xe914;" glyph-name="web_icon_dudu_selected" d="M611.281 940.73c-2.513 0.559-4.98 0.838-7.447 0.931-22.342 0.884-41.937-14.615-46.452-36.864-2.467-12.055-0.186-24.39 6.563-34.723 6.703-10.333 16.989-17.361 28.905-19.828 96.023-20.061 178.688-76.893 232.774-160.023 54.039-83.177 72.89-182.505 53.155-279.738-2.467-12.102-0.186-24.39 6.563-34.723 6.703-10.333 16.989-17.361 28.905-19.875 2.513-0.512 5.027-0.791 7.494-0.931 9.542-0.372 18.804 2.281 26.81 7.587 10.193 6.796 17.175 17.222 19.596 29.277 50.967 250.973-109.056 497.199-356.864 548.911v0zM689.85 246.784c2.7-1.769 62.929-40.913 109.196-89.041 17.408-18.199 46.592-48.64 45.847-83.968-0.652-24.111-14.103-48.314-41.146-73.868-6.703-6.703-66.932-63.628-163.281-63.628-26.391 0-53.481 4.236-80.57 12.614-28.439 8.751-57.391 22.249-85.923 40.029-112.64 67.351-199.587 154.065-282.159 281.321-141.917 218.671-145.967 405.923-145.315 441.204 0.233 162.816 134.191 226.909 149.457 233.658 20.992 9.868 39.377 14.615 56.273 14.615 8.099 0 15.872-1.117 23.040-3.351 14.755-4.515 35.281-16.291 49.059-46.499 18.804-41.007 36.585-99.793 48.733-161.373 12.753-63.86-22.621-81.827-56.832-99.142l-1.35-0.605c0 0-60.509-25.553-71.168-30.022-10.473-4.375-15.919-16.291-12.335-27.229 24.39-74.892 61.673-152.529 107.753-224.535 45.335-70.842 99.235-136.239 155.834-189.207 4.049-3.724 9.263-5.818 14.755-5.818l1.862 0.093c5.958 0.465 11.543 3.537 15.313 8.378 9.216 11.962 23.319 29.231 38.214 43.613 28.253 27.183 53.76 40.401 78.057 40.401 6.656 0 13.265-0.977 19.596-2.979 6.144-1.862 15.965-7.261 27.089-14.662v0zM498.223 561.943c-11.962 2.513-22.202 9.542-28.905 19.828-6.749 10.333-9.076 22.668-6.609 34.816 4.561 22.202 24.111 37.702 46.452 36.817 2.467-0.093 4.98-0.372 7.494-0.884 105.891-22.109 174.313-127.395 152.483-234.636-2.42-12.009-9.356-22.388-19.549-29.231-8.006-5.306-17.315-7.913-26.81-7.587-2.467 0.14-4.98 0.419-7.447 0.977-11.962 2.467-22.249 9.542-28.951 19.875-6.703 10.287-9.030 22.575-6.563 34.676 5.632 27.788 0.279 56.087-15.174 79.872-15.5 23.552-39.005 39.796-66.42 45.475v0zM545.652 706.653c-24.623 5.167-40.541 29.649-35.468 54.551 4.515 22.249 24.064 37.748 46.406 36.911 2.467-0.093 4.98-0.419 7.494-0.931 85.737-17.92 159.465-68.608 207.732-142.801 48.221-74.193 65.071-162.816 47.383-249.623-2.467-12.102-9.402-22.528-19.596-29.277-8.006-5.353-17.268-7.959-26.81-7.587-2.467 0.093-5.027 0.419-7.54 0.931-24.576 5.12-40.495 29.556-35.421 54.551 12.753 62.604 0.605 126.65-34.257 180.224s-88.064 90.159-149.923 103.052z" />
<glyph unicode="&#xe915;" glyph-name="web_icon_service" d="M292.133 521.326c0-121.307 98.341-219.648 219.648-219.648 121.344 0 219.648 98.341 219.648 219.648s-98.341 219.648-219.648 219.648c-121.344 0-219.648-98.341-219.648-219.648zM249.051 440.722v204.873c-2.853 0-5.705-0.11-8.521-0.329 46.409 100.864 149.797 171.081 270.117 171.081s223.707-70.217 270.117-171.081c-2.816 0.219-5.632 0.329-8.521 0.329v-204.91c57.783 0 104.631 45.861 104.631 102.437 0 38.4-21.614 71.899-53.577 89.417-44.983 126.793-167.79 217.893-312.649 217.893s-267.666-91.063-312.649-217.856c-31.963-17.518-53.577-51.017-53.577-89.454 0-56.539 46.811-102.4 104.631-102.4zM736.658 323.255c-59.209-54.126-138.679-87.259-226.048-87.259-87.223 0-166.546 33.024-225.719 86.967-105.874-53.358-175.397-148.37-175.397-277.431h804.937c0.037 129.28-70.766 224.402-177.774 277.723z" />
<glyph unicode="&#xe916;" glyph-name="web_icon_file" d="M442.647 819.805h-233.472c-77.079 0-139.59-63.488-139.59-141.777v-460.847c0-78.289 62.511-141.777 139.59-141.777h558.313c77.079 0 139.59 63.488 139.59 141.777v370.129h-385.862l-78.569 232.495zM907.729 680.122c-9.542 52.876-50.362 92.625-99.281 92.625h-226.583l29.929-92.625h295.936z" />
<glyph unicode="&#xe917;" glyph-name="web_icon_attention" d="M1005.34 506.482c17.237 16.612 23.040 40.562 15.189 62.578-7.851 22.073-27.932 37.945-52.452 41.415l-271.36 38.969c-3.072 0.455-5.746 2.332-7.111 5.006l-117.988 236.316c-10.695 21.618-34.133 35.612-59.62 35.612-25.429 0-48.868-13.938-59.733-35.556l-117.931-236.373c-1.365-2.674-3.982-4.551-7.054-5.006l-271.36-38.969c-24.121-3.413-44.715-19.684-52.508-41.472-7.851-21.959-1.991-45.909 15.189-62.464l198.827-191.602c2.162-2.105 3.129-5.063 2.674-7.964l-46.080-265.728c-4.153-23.495 6.144-46.649 26.965-60.473 19.911-13.141 48.526-14.564 70.087-3.47l236.601 122.937c2.503 1.308 5.916 1.365 8.761-0.114l236.601-122.937c9.557-5.006 20.537-7.623 31.744-7.623 13.653 0 27.25 4.039 38.343 11.264 20.651 13.767 30.948 36.807 26.852 60.245l-46.137 265.842c-0.512 2.844 0.455 5.86 2.617 7.908l198.884 191.659zM512.057 209.408c-6.087 19.911-205.483 140.345-204.914 219.819 0.967 137.159 151.609 164.75 204.629 46.535 50.574 113.493 203.833 91.762 204.8-45.739 0.569-78.905-198.997-199.908-204.516-220.615z" />
<glyph unicode="&#xe918;" glyph-name="web_icon_adduser" d="M307.2 601.805c0 74.394 20.173 143.974 54.835 204.134-201.114-7.168-362.035-168.602-362.035-367.258 0-164.198 109.926-303.206 261.683-350.515-7.731-17.613-14.49-37.478-18.483-60.672-4.352-63.232 63.078-37.427 88.422-21.658 0 0 96.666 58.317 243.2 64.922 7.782-0.717 13.824-0.512 19.149 0h2.97c134.246 0 251.75 69.12 318.259 172.8-58.778-32.614-126.362-51.354-198.4-51.354-226.202 0-409.6 183.398-409.6 409.6zM716.8 909.005c-169.677 0-307.2-137.523-307.2-307.2s137.523-307.2 307.2-307.2c169.677 0 307.2 137.523 307.2 307.2s-137.523 307.2-307.2 307.2zM870.4 550.605h-102.4v-102.4c0-28.262-22.938-51.2-51.2-51.2s-51.2 22.938-51.2 51.2v102.4h-102.4c-28.262 0-51.2 22.938-51.2 51.2s22.938 51.2 51.2 51.2h102.4v102.4c0 28.262 22.938 51.2 51.2 51.2s51.2-22.938 51.2-51.2v-102.4h102.4c28.262 0 51.2-22.938 51.2-51.2s-22.938-51.2-51.2-51.2z" />
<glyph unicode="&#xe919;" glyph-name="web_icon_sendout" d="M7.322 425.626c-12.698-5.581-18.995-21.197-14.387-35.84 2.918-7.834 8.653-13.67 15.053-15.974l271.104-122.266 697.907 591.77-969.677-417.69zM307.098 204.083l24.115-153.088c2.304-15.309 15.002-24.73 28.262-22.426 5.53 1.28 10.394 4.25 13.875 9.114l108.544 122.47 221.696-100.301c12.698-5.53 26.522 0.973 31.744 14.643l278.272 734.208 0.563 0.666v0.614h0.256v0.666h0.307v1.28l0.307 0.307 0.307 0.358v0.666l0.256 0.666v0.307l-708.506-610.15zM370.739 112.896l-15.872 104.243 77.926-35.226-62.054-69.018z" />
<glyph unicode="&#xe91a;" glyph-name="web_icon_edit" d="M384.398 320.398c22.244-22.244 58.254-22.244 80.441 0l402.261 402.261c22.244 22.244 22.244 58.254 0 80.441-22.244 22.244-58.254 22.244-80.441 0l-402.261-402.204c-22.187-22.244-22.187-58.254 0-80.498zM853.333 448c-31.403 0-56.889-25.486-56.889-56.889v-180.167c0-26.169-21.22-47.388-47.388-47.388h-474.112c-26.169 0-47.388 21.22-47.388 47.388v474.112c0 26.169 21.22 47.388 47.388 47.388h180.167v113.778h-227.556c-62.862 0-113.778-50.916-113.778-113.778v-568.889c0-62.862 50.916-113.778 113.778-113.778h568.889c62.862 0 113.778 50.916 113.778 113.778v227.556c0 31.403-25.486 56.889-56.889 56.889z" />
<glyph unicode="&#xe91b;" glyph-name="web_icon_message_announcement" d="M900.282 609.233c-85.132 200.192-222.115 352.442-291.421 324.049-117.667-48.407 70.097-280.436-507.857-517.725-49.943-20.573-62.604-102.54-41.658-151.645 20.852-48.966 89.135-97.792 139.078-77.359 8.657 3.584 40.355 13.917 40.355 13.917 35.654-48.407 72.937-19.735 86.249-50.409 15.919-36.911 50.502-117.201 62.278-144.477s38.447-52.503 57.809-45.056c19.316 7.447 85.039 32.675 110.22 42.31 25.181 9.681 31.139 32.349 23.459 50.176-8.285 19.27-42.263 24.948-51.991 47.43-9.681 22.388-41.332 94.394-50.409 117.108-12.381 30.86 13.917 55.994 52.131 59.951 263.121 27.788 312.273-136.425 401.873-99.607 69.073 28.532 55.017 231.331-30.115 431.337v0 0zM870.679 284.719c-15.407-6.237-118.97 76.148-185.111 231.75-66.188 155.462-57.856 297.612-42.449 303.942 15.36 6.237 116.41-93.231 182.505-248.739 66.188-155.508 60.416-280.623 45.056-286.953v0 0z" />
<glyph unicode="&#xe91c;" glyph-name="web_icon_set_selected" d="M893.554 448c0 51.257 28.501 96.825 74.012 113.892-22.756 79.701-68.324 153.771-125.269 210.716-39.879-28.444-96.825-34.19-142.393-11.378-45.568 28.444-68.324 74.012-62.635 125.269-39.879 11.378-85.39 17.067-125.269 17.067-45.568 0-85.447-5.689-125.269-17.067 5.689-45.568-17.067-96.825-62.635-125.269-45.568-28.501-102.514-22.756-142.393 11.378-56.946-56.946-102.514-130.958-125.269-210.716 45.511-17.067 74.012-62.635 74.012-113.892s-28.501-96.825-74.012-113.892c22.756-79.701 68.324-153.771 125.269-210.716 39.879 28.444 96.825 34.19 142.393 11.378 45.568-28.444 68.324-74.012 62.635-125.269 39.879-11.378 85.39-17.067 125.269-17.067 45.568 0 85.447 5.689 125.269 17.067-5.689 45.568 17.067 96.825 62.635 125.269s102.514 22.812 142.393-11.378c56.946 56.946 102.514 130.958 125.269 210.716-45.511 17.067-74.012 62.635-74.012 113.892zM512 221.070c-127.090 0-227.385 103.14-227.385 226.93s100.295 226.93 227.385 226.93 227.385-103.14 227.385-226.93c0-123.79-100.295-226.93-227.385-226.93zM512 561.892c-62.919 0-113.892-50.972-113.892-113.892s50.972-113.892 113.892-113.892 113.892 50.972 113.892 113.892-50.972 113.892-113.892 113.892z" />
<glyph unicode="&#xe91d;" glyph-name="web_icon_teamset" d="M1019.853 388.096c-2.253 12.39-9.216 20.429-17.766 20.224h-1.843c-29.389 0-53.35 25.344-53.35 56.525 0 10.291 4.608 21.555 4.659 21.658 4.557 10.854 1.075 24.115-8.090 30.925l-0.512 0.358-51.302 30.208-0.563 0.256c-3.072 1.382-6.4 2.099-9.882 2.099-7.322 0-14.49-3.123-19.2-8.243-6.246-6.861-25.958-24.627-41.933-24.627-16.077 0-35.891 18.125-42.189 25.139-4.71 5.274-11.93 8.397-19.302 8.397-3.482 0-6.707-0.666-9.728-2.048l-0.563-0.256-53.094-30.925-0.512-0.358c-9.165-6.81-12.698-20.070-8.141-30.874 0.051-0.102 4.659-11.418 4.659-21.709 0-31.181-23.91-56.525-53.35-56.525h-1.792c-8.55 0.205-15.565-7.782-17.766-20.224-0.154-0.973-4.352-24.269-4.352-42.65s4.147-41.626 4.352-42.65c2.15-12.237 9.011-20.173 17.459-20.173h2.099c29.44 0 53.35-25.395 53.35-56.525 0-10.291-4.608-21.555-4.659-21.606-4.557-10.854-1.024-24.166 8.090-30.925l0.512-0.358 50.842-30.054c3.072-1.434 6.349-2.15 9.882-2.15 7.424 0 14.592 3.226 19.302 8.602 5.888 6.81 26.419 26.266 42.854 26.266 16.538 0 36.762-19.302 43.162-26.726 4.659-5.478 11.93-8.755 19.405-8.755 3.43 0 6.656 0.666 9.728 2.099l0.512 0.256 52.173 30.566 0.512 0.41c9.165 6.758 12.646 20.070 8.141 30.874 0 0.102-4.659 11.418-4.659 21.658 0 31.181 23.962 56.525 53.35 56.525h1.843c8.55-0.205 15.565 7.782 17.766 20.173 0.154 1.024 4.25 24.32 4.25 42.65s-4.198 41.472-4.352 42.496zM819.251 294.605c-28.262 0-51.2 22.886-51.2 51.046 0 28.211 22.989 51.098 51.2 51.098 28.262 0 51.2-22.938 51.2-51.098 0.051-28.16-22.938-51.046-51.2-51.046zM911.258 37.581c-11.213 0-22.067 5.018-29.082 13.158-9.574 11.11-39.885 40.038-64.768 40.038-24.678 0-55.45-29.133-64.256-39.373-7.066-8.038-17.818-12.902-28.928-12.902-5.274 0-10.24 1.126-14.797 3.226l-0.768 0.358-75.469 44.698-0.768 0.563c-13.67 10.189-18.995 30.157-12.134 46.438 0.102 0.102 6.963 16.998 6.963 32.41 0 27.341-12.493 51.507-31.539 67.021-17.818 3.533-28.211 9.011-35.584 16.435-4.198 0.717-8.448 1.382-12.851 1.382h-3.174c-12.646 0-22.938 11.878-26.163 30.259-0.256 1.536-6.502 36.454-6.502 64s6.246 62.464 6.502 63.949c3.328 18.637 13.824 30.618 26.675 30.31h2.714c44.134 0 80.026 38.042 80.026 84.787 0 15.411-6.861 32.358-6.963 32.512-6.81 16.282-1.536 36.147 12.237 46.336l0.768 0.563 71.731 41.779c-0.256 13.21-1.024 28.006-2.867 43.878-3.072 26.163-6.963 58.675-23.45 92.058-0.307 0.819-0.666 1.536-1.075 2.253 0 0.051-0.051 0.102-0.051 0.102-0.102 0.205-0.205 0.358-0.307 0.563-0.461 0.922-1.024 1.741-1.587 2.56-13.466 21.555-82.483 121.754-208.998 121.754-28.006 0-57.088-5.018-86.426-14.899-46.080-15.411-90.931-16.64-103.629-16.64l-3.072 0.051c-0.358 0-0.768 0-1.126 0-8.909 0-17.459-5.325-21.76-13.466-5.274-9.933-5.786-10.957 10.701-67.533-18.688-17.51-43.11-55.398-43.11-133.12 0-13.466 0.512-26.624 1.587-39.117-0.205-1.178-0.307-2.458-0.461-3.584-22.426-18.534-35.43-46.029-35.43-75.776 0-45.21 31.283-113.152 79.821-127.898 21.606-42.701 55.859-94.054 105.011-124.826v-32.614c-10.547-13.722-25.242-25.446-60.877-28.365-2.304-0.205-232.602-23.45-291.789-122.573-12.134-20.378-15.514-62.874-16.23-94.874-0.154-6.912 2.406-13.568 7.168-18.483 4.71-4.966 11.213-7.68 17.92-7.68h870.912c6.707 0 13.158 2.714 17.869 7.578s7.322 11.418 7.27 18.278c-0.051 6.4-0.512 15.923-1.229 26.266-2.816-0.717-5.53-1.843-8.653-1.843z" />
<glyph unicode="&#xe91e;" glyph-name="web_icon_close" d="M592.839 448l198.827 196.324c22.414 22.13 24.405 59.79 4.437 84.139s-54.329 26.169-76.743 4.039l-207.36-204.686-207.303 204.743c-22.414 22.13-56.775 20.309-76.743-4.039s-17.977-62.066 4.437-84.196l198.77-196.324-198.827-196.324c-22.414-22.13-24.405-59.79-4.437-84.196 19.968-24.348 54.329-26.169 76.743-4.039l207.36 204.743 207.303-204.743c22.414-22.13 56.775-20.309 76.743 4.039s17.977 62.066-4.437 84.196l-198.77 196.324z" />
<glyph unicode="&#xe91f;" glyph-name="web_icon_search" d="M962.617 101.092l-132.608 132.608c43.349 66.731 68.779 146.204 68.779 231.652 0 235.634-191.204 426.667-427.065 426.667s-427.065-191.033-427.065-426.667c0-235.634 191.204-426.667 427.065-426.667 109.113 0 208.384 41.244 283.876 108.544l126.578-126.578c22.244-22.244 58.254-22.244 80.441 0 22.244 22.187 22.244 58.197 0 80.441zM472.121 152.064c-173.227 0-313.628 139.833-313.628 312.377 0 172.487 140.402 312.377 313.628 312.377 173.17 0 313.628-139.833 313.628-312.377s-140.402-312.377-313.628-312.377z" />
<glyph unicode="&#xe920;" glyph-name="web_icon_teamlist" d="M910.222 789.333h-568.889c-31.403 0-56.889-25.486-56.889-56.889s25.486-56.889 56.889-56.889h568.889c31.403 0 56.889 25.486 56.889 56.889s-25.486 56.889-56.889 56.889zM113.778 789.333c-31.403 0-56.889-25.486-56.889-56.889s25.486-56.889 56.889-56.889 56.889 25.486 56.889 56.889-25.486 56.889-56.889 56.889zM341.333 391.111h284.444c31.403 0 56.889 25.486 56.889 56.889s-25.486 56.889-56.889 56.889h-284.444c-31.403 0-56.889-25.486-56.889-56.889s25.486-56.889 56.889-56.889zM113.778 504.889c-31.403 0-56.889-25.486-56.889-56.889s25.486-56.889 56.889-56.889 56.889 25.486 56.889 56.889-25.486 56.889-56.889 56.889zM739.556 220.444h-398.222c-31.403 0-56.889-25.486-56.889-56.889s25.486-56.889 56.889-56.889h398.222c31.403 0 56.889 25.486 56.889 56.889s-25.486 56.889-56.889 56.889zM113.778 220.444c-31.403 0-56.889-25.486-56.889-56.889s25.486-56.889 56.889-56.889 56.889 25.486 56.889 56.889-25.486 56.889-56.889 56.889z" />
<glyph unicode="&#xe921;" glyph-name="web_icon_goto" d="M733.241 468.139c11.093-11.093 11.093-29.127 0-40.22l-402.261-402.261c-11.093-11.093-29.127-11.093-40.22 0v0c-11.093 11.093-11.093 29.127 0 40.22l402.261 402.261c11.093 11.093 29.127 11.093 40.22 0v0zM733.241 427.861c-11.093-11.093-29.127-11.093-40.22 0l-402.261 402.318c-11.093 11.093-11.093 29.127 0 40.22v0c11.093 11.093 29.127 11.093 40.22 0l402.261-402.261c11.093-11.15 11.093-29.127 0-40.277v0z" />
<glyph unicode="&#xe922;" glyph-name="web_icon_username" d="M994.247 93.298c-13.312-87.609-223.801-157.298-482.247-157.298s-468.935 69.689-482.247 157.298c-0.398 0.341-0.91 0.683-1.308 1.024v30.834h0.74c2.162 27.932 13.54 57.23 42.837 70.315 51.2 22.471 100.58 40.391 144.327 56.149 21.845 7.908 13.084 4.324 31.687 11.492s64.569 24.974 79.019 32.028c17.92 8.761 31.687 17.749 41.529 27.42 4.324 4.267 7.737 8.704 10.24 13.312 9.956 18.432 5.063 39.993-20.821 68.153-25.6 28.615-46.933 49.038-59.733 77.71-85.333 20.423-93.924 114.46-93.924 159.46 0 40.903 29.867 73.614 64 77.653v69.461c8.533 69.518 8.533 32.711 46.933 155.364 42.667-16.327 102.457 0 115.257 4.096 29.867 8.135 55.467 12.231 76.8 12.231 68.267 0 187.79-32.711 238.99-155.364 8.533-28.615 8.533-57.23 4.267-85.845 38.4-8.192 64-40.903 64-77.653 0-44.942-12.8-134.94-93.924-159.46-9.842-22.073-22.414-39.31-41.301-59.164-1.365-1.422-3.072-3.072-4.494-4.494-4.437-4.551-8.818-9.045-13.995-13.995-11.719-12.8-10.695-7.851-14.507-18.148-11.378-30.891 2.219-68.494 45.454-89.145 57.628-27.591 152.576-54.158 255.033-101.205 23.381-9.785 36.238-28.729 42.553-49.38 2.105-6.884 3.47-13.938 4.267-20.935h1.877v-30.834c-0.398-0.398-0.853-0.74-1.308-1.081z" />
<glyph unicode="&#xe923;" glyph-name="web_icon_password" d="M796.444 533.333h-455.111v113.778c0 94.265 76.402 170.667 170.667 170.667s170.667-76.402 170.667-170.667h113.778c0 157.070-127.374 284.444-284.444 284.444s-284.444-127.374-284.444-284.444v-113.778c-62.862 0-113.778-50.916-113.778-113.778v-341.333c0-62.862 50.916-113.778 113.778-113.778h568.889c62.862 0 113.778 50.916 113.778 113.778v341.333c0 62.862-50.916 113.778-113.778 113.778zM568.889 170.041v-40.277c0-28.615-25.486-51.826-56.889-51.826s-56.889 23.211-56.889 51.826v40.277c-33.849 17.977-56.889 51.029-56.889 89.259 0 57.23 50.916 103.652 113.778 103.652s113.778-46.421 113.778-103.652c0-38.229-23.040-71.282-56.889-89.259z" />
<glyph unicode="&#xe924;" glyph-name="web_icon_delete" d="M512 789.333c-188.53 0-341.333-152.804-341.333-341.333s152.804-341.333 341.333-341.333c188.53 0 341.333 152.804 341.333 341.333s-152.804 341.333-341.333 341.333zM632.661 367.559c11.093-11.093 11.093-29.127 0-40.22s-29.127-11.093-40.22 0l-80.441 80.441-80.441-80.441c-11.093-11.093-29.127-11.093-40.22 0s-11.093 29.127 0 40.22l80.441 80.441-80.441 80.441c-11.093 11.093-11.093 29.127 0 40.22s29.127 11.093 40.22 0l80.441-80.441 80.441 80.441c11.093 11.093 29.127 11.093 40.22 0s11.093-29.127 0-40.22l-80.441-80.441 80.441-80.441z" />
<glyph unicode="&#xe925;" glyph-name="web_icon_visible" d="M512 760.889c-267.036 0-483.556-227.556-483.556-312.889s216.519-312.889 483.556-312.889 483.556 227.556 483.556 312.889c0 85.333-216.519 312.889-483.556 312.889zM512.114 305.55c-78.507 0-142.165 63.716-142.165 142.336s63.659 142.336 142.165 142.336 142.165-63.716 142.165-142.336-63.659-142.336-142.165-142.336z" />
<glyph unicode="&#xe926;" glyph-name="web_icon_contactlist" d="M517.916 903.111c-27.648 0-56.434-4.949-85.447-14.677-45.284-15.246-89.6-16.441-102.116-16.441h-3.015c-0.398 0-0.74 0-1.138 0-8.818 0-17.237-5.234-21.504-13.312-5.234-9.785-5.689-10.809 10.581-66.731-18.489-17.294-42.667-54.67-42.667-131.47 0-13.312 0.512-26.283 1.593-38.684-0.171-1.138-0.284-2.389-0.455-3.527-22.13-18.318-34.987-45.397-34.987-74.809 0-44.658 30.891-111.787 78.848-126.35 21.39-42.155 55.182-92.956 103.765-123.335v-32.199c-10.411-13.596-24.974-25.088-60.132-28.046-2.276-0.171-229.831-23.211-288.313-121.116-12.004-20.139-15.303-62.066-16.043-93.696-0.171-6.827 2.389-13.369 7.054-18.261s11.093-7.566 17.749-7.566h860.615c6.656 0 12.971 2.674 17.636 7.509s7.225 11.321 7.168 18.091c-0.228 20.764-2.332 71.452-17.067 94.606-60.416 94.834-285.468 119.865-287.687 120.149-37.376 3.698-48.526 12.971-59.164 26.965v32.199c50.916 30.492 85.732 82.489 107.406 125.554 45.284 16.043 74.468 82.261 74.468 125.497 0 27.705-11.662 53.646-31.858 71.908 0.74 17.465 0.74 42.837-2.617 71.111-3.072 25.884-6.884 57.97-23.211 90.965-0.284 0.796-0.683 1.479-1.081 2.219 0 0.057-0.057 0.057-0.057 0.114-0.114 0.171-0.228 0.398-0.341 0.569-0.455 0.91-1.024 1.707-1.593 2.503-13.198 21.333-81.465 120.263-206.393 120.263v0 0z" />
<glyph unicode="&#xe927;" glyph-name="web_icon_group" d="M445.838 641.536c-23.552-21.447-335.929-298.098-335.929-298.098s0-49.778 0.057-100.523c0-48.014 0.057-210.204 0.114-218.51 0.284-33.906 26.055-52.281 66.901-52.11h225.052v298.61c0 16.896 12.288 30.606 27.477 30.606h164.978c15.189 0 27.477-13.71 27.477-30.606v-298.61h223.687c39.595 0.398 68.38 34.759 68.437 64.74 0 0 0 165.035 0 215.097 0 46.99 0 92.501 0 92.501s-318.862 281.145-336.156 297.017c-40.107 36.75-96.313 32.427-132.096-0.114zM1001.643 507.221l0.512 3.413c-32.313 31.118-381.611 355.499-412.786 384.512-41.87 38.969-108.658 39.993-160.256-8.476-21.333-20.025-386.332-348.046-412.103-371.655-21.22-19.513-24.974-58.311 2.503-82.091 24.462-21.163 63.488-17.749 84.139-2.048 20.708 15.644 305.607 274.034 346.624 309.817 40.732 35.499 82.375 37.717 125.611 0 27.42-23.893 324.836-297.244 345.884-314.652 20.992-17.408 60.473-19.74 85.788 1.934 23.268 19.968 22.357 51.769-5.916 79.246z" />
<glyph unicode="&#xe928;" glyph-name="web_icon_organization" d="M887.524 123.676c-75.378 0-136.476 61.099-136.476 136.476s61.099 136.476 136.476 136.476c75.378 0 136.476-61.099 136.476-136.476s-61.099-136.476-136.476-136.476zM846.336 460.516c-18.83 98.93-79.758 182.841-164.068 231.595 19.285 28.444 30.606 62.293 33.451 98.532 126.805-65.422 217.714-189.952 236.601-337.124-20.309 6.77-41.643 11.264-64.228 11.264-14.336 0.057-28.274-1.479-41.756-4.267zM512 669.867c-75.378 0-136.476 61.099-136.476 136.476s61.099 136.476 136.476 136.476c75.378 0 136.476-61.099 136.476-136.476s-61.099-136.476-136.476-136.476zM177.721 460.743c-13.141 2.617-26.738 4.096-40.732 4.096-22.812 0-44.373-4.608-64.91-11.492 18.944 147.513 110.137 272.213 237.284 337.636 2.788-36.181 14.052-69.916 33.223-98.361-84.708-48.697-145.92-132.722-164.864-231.879zM272.953 260.096c0-75.378-61.099-136.476-136.476-136.476-75.378 0.057-136.476 61.156-136.476 136.476 0 75.378 61.099 136.476 136.476 136.476s136.476-61.099 136.476-136.476zM295.879 132.836c58.88-48.299 134.087-77.369 216.121-77.369 82.318 0 157.867 29.184 216.747 77.824 22.016-27.477 50.46-49.436 83.74-62.692-79.076-72.704-184.32-117.419-300.26-117.419-115.883 0-221.070 44.658-300.146 117.248 33.28 13.198 61.724 34.987 83.797 62.407z" />
<glyph unicode="&#xe929;" glyph-name="web_icon_team" d="M194.844 202.695c16.896 16.043 35.612 28.729 56.036 38.116 20.423 9.33 39.481 17.692 57.116 25.031s32.256 15.019 43.918 23.040c11.662 8.021 17.465 18.375 17.465 31.061 0 7.339-0.341 12.686-1.081 16.043-12.004 6.656-25.714 13.028-41.244 19.058s-30.151 11.89-43.861 17.522c-13.767 5.689-25.543 11.719-35.442 18.034-9.842 6.372-14.791 13.881-14.791 22.585 0 16.043 4.551 29.924 13.767 41.586 9.159 11.719 19.058 24.235 29.582 37.604-11.321 21.447-20.651 46.82-28.046 76.231s-11.093 65.195-11.093 107.292c0 26.055 2.105 51.143 6.372 75.207-16.953 8.021-38.116 12.004-63.488 12.004-19.058 0-35.612-4.324-49.721-13.028s-25.771-20.366-34.93-35.1c-9.159-14.677-16.043-31.744-20.594-51.086-4.608-19.399-6.884-39.481-6.884-60.188 0-28.729 4.21-52.281 12.686-70.656s17.806-34.418 28.046-48.128c10.24-13.71 19.57-25.884 28.046-36.58s12.686-22.357 12.686-35.1c0-12.686-7.737-23.040-23.268-31.118-15.531-8.021-32.597-15.701-51.314-23.040-18.66-7.339-35.783-15.36-51.314-24.064s-23.268-20.025-23.268-34.076c0-12.004 3.698-23.893 11.093-35.612s18.489-22.244 33.337-31.573c14.791-9.33 32.939-16.896 54.443-22.528 21.504-5.689 46.706-8.533 75.605-8.533h20.139zM1011.598 325.518c-8.135 6.997-18.148 13.369-30.151 19.058s-25.202 11.036-39.652 16.043c-14.45 5.006-27.705 10.183-39.652 15.531-12.004 5.348-22.016 11.036-30.151 17.010-8.135 6.030-12.174 12.686-12.174 20.082 0 15.36 5.12 28.729 15.303 40.107 10.24 11.378 21.504 23.723 33.849 37.092s23.609 29.241 33.849 47.616c10.24 18.375 15.36 42.61 15.36 72.704 0 14.734-1.593 30.948-4.779 48.64s-9.842 34.247-20.082 49.607c-10.24 15.36-25.202 28.217-44.942 38.628-19.74 10.354-46.194 15.531-79.303 15.531-14.791 0-31.403-6.030-49.721-18.034 1.422-9.33 2.674-18.716 3.698-28.046s1.593-18.716 1.593-28.046c0-43.463-3.698-81.237-11.093-113.266-7.396-32.085-16.725-59.847-28.046-83.228 12.004-15.36 23.609-28.9 34.93-40.619 11.264-11.719 16.896-24.576 16.896-38.571 0-12.004-7.225-22.073-21.675-30.094s-30.663-15.531-48.64-22.528c-17.977-7.054-34.759-14.564-50.233-22.585-15.531-8.021-24.69-18.375-27.534-31.061 2.844-13.369 11.435-23.552 25.941-30.549 14.45-7.054 31.744-13.369 51.826-19.058s41.415-12.004 64-19.058c22.585-6.997 43.691-16.896 63.431-29.582 24.007 0.683 47.445 3.015 70.315 6.997 22.926 4.039 43.179 9.842 60.814 17.522s31.744 17.18 42.325 28.558c10.581 11.378 15.872 24.405 15.872 39.083 0 9.33-4.039 17.465-12.174 24.519zM782.507 166.684c-20.309 10.752-42.382 20.708-66.276 29.753s-45.966 18.603-66.276 28.729c-20.309 10.069-37.092 20.708-50.517 31.858-13.369 11.15-20.082 24.007-20.082 38.628 0 18.773 3.413 35.669 10.354 50.631 6.884 14.962 15.417 29.582 25.543 43.861s20.992 29.241 32.597 44.885c11.605 15.644 22.471 33.564 32.597 53.76s18.66 43.861 25.543 70.997 10.24 59.392 10.24 96.996c0 27.819-1.991 56.206-5.973 85.049-3.982 28.9-13.767 55.353-29.355 79.36s-38.571 43.691-69.006 58.994c-30.379 15.303-72.021 22.926-124.928 22.926-62.976 0-109.568-22.756-139.605-68.38-30.037-45.568-45.113-106.951-45.113-184.206 0-35.499 3.413-66.788 10.297-93.924s15.588-51.143 26.055-72.021c10.524-20.878 21.902-39.652 34.247-56.377 12.288-16.725 23.723-32.199 34.247-46.478s19.172-28.388 26.055-42.268c6.884-13.938 10.297-28.9 10.297-44.885s-6.713-29.753-20.082-41.244c-13.426-11.492-30.265-22.073-50.517-31.858-20.252-9.728-42.212-18.944-65.707-27.648-23.552-8.704-45.454-18.261-65.764-28.729-20.309-10.411-37.092-22.073-50.517-34.987-13.426-12.857-20.082-27.989-20.082-45.397 0-11.15 7.054-22.244 21.163-33.394s34.759-21.049 61.952-29.753c27.136-8.704 60.871-15.644 101.035-20.878 40.22-5.177 86.414-7.794 138.581-7.794 45.625 0 90.169 2.617 133.632 7.851s81.863 12.345 115.143 21.39c33.337 9.045 60.132 18.944 80.384 29.753 20.309 10.809 30.436 22.073 30.436 33.906 0 17.408-6.713 32.54-20.082 45.397s-30.208 24.69-50.517 35.499z" />
<glyph unicode="&#xe92a;" glyph-name="web_icon_meeting_offvoice" d="M512 960c-282.77 0-512-229.23-512-512s229.23-512 512-512 512 229.23 512 512c0 282.77-229.23 512-512 512zM512-27.429c-262.583 0-475.429 212.846-475.429 475.429s212.846 475.429 475.429 475.429c262.583 0 475.429-212.846 475.429-475.429s-212.846-475.429-475.429-475.429zM640.146 534.711v-117.723c0-63.598-57.417-115.163-128.256-115.163-30.135 0-57.344 9.765-79.214 25.417l-23.771-23.771c28.197-23.223 63.634-37.851 103.095-37.851 41.362 0 78.702 15.762 107.593 40.96 34.121 24.905 56.978 61.44 56.978 105.326v73.143l36.206-0.256v-77.093c0-88.466-95.817-178.176-178.542-178.176h-3.547v-37.339h145.481v-36.681h-328.704v36.681h145.737v37.339h-3.584c-36.937 0-75.995 18.505-108.434 46.19l-96.549-96.549-25.856 25.856 480.622 480.658 25.856-25.856-125.111-125.111zM383.671 416.987v208.347c0 63.598 57.417 115.163 128.256 115.163 55.625 0 102.51-31.963 120.283-76.434l-248.357-248.357c-0.073 0.439-0.183 0.841-0.183 1.28zM311.040 407.735v77.093l36.389 0.219v-73.143c0-10.094 2.267-18.871 5.376-27.173l-30.025-30.025c-6.985 17.262-11.739 35.072-11.739 53.029z" />
<glyph unicode="&#xe92b;" glyph-name="web_icon_meeting_openvoice" d="M512 960c-282.77 0-512-229.23-512-512s229.23-512 512-512 512 229.23 512 512c0 282.77-229.23 512-512 512zM512-27.429c-262.583 0-475.429 212.846-475.429 475.429s212.846 475.429 475.429 475.429c262.583 0 475.429-212.846 475.429-475.429s-212.846-475.429-475.429-475.429zM547.438 225.024c82.761 0 178.542 89.71 178.542 178.176v77.093l-36.206 0.256v-73.143c0-43.886-22.857-80.457-56.978-105.326-28.891-25.198-66.231-40.96-107.593-40.96-69.742 0-128.987 43.52-152.942 104.741-6.949 12.251-11.63 25.49-11.63 41.545v73.143l-36.389-0.256v-77.093c0-88.466 95.817-178.176 178.542-178.176h3.621v-37.339h-145.701v-36.681h328.667v36.681h-145.481v37.339h3.547zM525.129 297.326c70.839 0 128.256 51.566 128.256 115.163v208.347c0 63.598-57.417 115.163-128.256 115.163s-128.256-51.566-128.256-115.163v-208.384c0-63.598 57.417-115.127 128.256-115.127z" />
<glyph unicode="&#xe92c;" glyph-name="web_icon_meeting_remove" d="M310.857 246.857c0-30.281 24.576-54.857 54.857-54.857h292.571c30.281 0 54.857 24.576 54.857 54.857v310.857h-402.286v-310.857zM603.429 466.286c0 10.094 8.192 18.286 18.286 18.286s18.286-8.192 18.286-18.286v-182.857c0-10.094-8.192-18.286-18.286-18.286s-18.286 8.192-18.286 18.286v182.857zM493.714 466.286c0 10.094 8.192 18.286 18.286 18.286s18.286-8.192 18.286-18.286v-182.857c0-10.094-8.192-18.286-18.286-18.286s-18.286 8.192-18.286 18.286v182.857zM384 466.286c0 10.094 8.192 18.286 18.286 18.286s18.286-8.192 18.286-18.286v-182.857c0-10.094-8.192-18.286-18.286-18.286s-18.286 8.192-18.286 18.286v182.857zM768 630.857h-164.571v19.931c0 0-24.576 53.211-54.857 53.211h-73.143c-30.281 0-54.857-53.211-54.857-53.211v-19.931h-164.571c-10.094 0-18.286-8.192-18.286-18.286s8.192-18.286 18.286-18.286h512c10.094 0 18.286 8.192 18.286 18.286s-8.192 18.286-18.286 18.286zM512 960c-282.77 0-512-229.23-512-512s229.23-512 512-512 512 229.23 512 512c0 282.77-229.23 512-512 512zM512-27.429c-262.583 0-475.429 212.846-475.429 475.429s212.846 475.429 475.429 475.429c262.583 0 475.429-212.846 475.429-475.429s-212.846-475.429-475.429-475.429z" />
<glyph unicode="&#xe92d;" glyph-name="web_icon_meeting_over" d="M512 960c-282.77 0-512-229.23-512-512s229.23-512 512-512 512 229.23 512 512c0 282.77-229.23 512-512 512zM512-27.429c-262.583 0-475.429 212.846-475.429 475.429s212.846 475.429 475.429 475.429c262.583 0 475.429-212.846 475.429-475.429s-212.846-475.429-475.429-475.429zM822.345 337.262c2.194 2.085 4.242 4.389 5.998 6.802 27.611 37.888 5.339 107.849-13.824 133.157-34.158 45.129-74.533 60.050-113.042 69.522-66.085 16.201-121.344 30.757-189.842 29.221-84.37-1.902-128.878-12.434-206.117-33.902-23.223-6.29-64.585-30.427-79.543-44.544l-0.293-0.256-0.951-0.914c-22.162-22.053-34.67-43.703-39.314-68.096-1.061-6.619-8.814-58.661 7.899-82.103 20.955-29.403 63.451-24.32 88.832-21.285 3.511 0.439 6.729 0.805 9.435 1.024 30.062 2.377 67.401 7.753 89.344 28.453 13.531 12.763 10.313 51.237 10.313 51.237s-9.216 56.795 120.393 56.795c129.573 0 120.357-56.795 120.357-56.795s-2.158-59.026 59.538-74.094c48.969-11.959 102.802-20.626 130.816 5.778v0z" />
<glyph unicode="&#xe92e;" glyph-name="web_icon_meeting_start" d="M512 960c-282.77 0-512-229.23-512-512s229.23-512 512-512 512 229.23 512 512c0 282.77-229.23 512-512 512zM512-27.429c-262.583 0-475.429 212.846-475.429 475.429s212.846 475.429 475.429 475.429c262.583 0 475.429-212.846 475.429-475.429s-212.846-475.429-475.429-475.429zM532.261 470.857c11.447-11.447 29.989-11.447 41.435 0l74.277 74.277v-46.446c0-16.165 13.129-29.294 29.294-29.294s29.294 13.129 29.294 29.294v117.138c0 16.165-13.129 29.294-29.294 29.294h-117.175c-16.165 0-29.294-13.129-29.294-29.294s13.129-29.294 29.294-29.294h46.446l-74.277-74.277c-11.447-11.447-11.447-29.989 0-41.399zM694.162 305.774c-2.779 2.194-5.339 4.206-7.424 5.961-22.93 19.602-53.138 42.167-83.273 43.045-18.615 0.549-43.52-28.965-43.52-28.965s-33.646-46.665-125.257 44.946c-91.611 91.611-44.946 125.257-44.946 125.257s43.264 40.229 10.313 94.464c-26.185 43.081-58.112 87.296-96.585 88.393-3.072 0.146-6.107-0.037-9.070-0.512-46.299-7.278-80.018-72.485-84.37-103.936-7.753-56.064 10.203-95.159 30.793-129.061 35.291-58.149 64.037-107.557 113.591-154.88 61.038-58.331 99.913-82.359 169.728-121.783 20.809-11.995 67.145-24.174 87.698-24.759h1.682c31.269-0.073 55.406 6.4 75.959 20.37 5.413 3.913 47.726 35.255 52.48 63.634 5.998 35.584-27.685 62.025-47.799 77.824z" />
<glyph unicode="&#xe92f;" glyph-name="web_icon_selected" d="M811.918 651.321c-17.636 18.261-46.535 18.603-64.569 0.796l-311.068-307.712-160.654 162.759c-16.668 16.896-44.658 15.986-62.521-2.105-17.806-18.034-18.773-46.364-2.048-63.317l196.38-198.94c16.668-16.896 44.658-15.986 62.464 2.105 4.096 4.153 7.168 8.818 9.444 13.767 1.764 1.308 3.527 2.56 5.12 4.153l326.656 323.129c18.034 17.806 18.375 47.104 0.796 65.365v0 0z" />
<glyph unicode="&#xe930;" glyph-name="web_icon_back" d="M415.573 447.374l308.338 328.988c21.22 22.642 21.22 59.335 0 81.977s-55.637 22.642-76.857 0l-345.828-368.924c0 0 0-0.057-0.057-0.057-0.284-0.341-0.74-0.455-1.081-0.796-21.22-22.642-21.22-59.335 0-81.977l345.828-368.981c21.22-22.642 55.637-22.642 76.857 0s21.22 59.335 0 81.977l-307.2 327.794z" />
<glyph unicode="&#xe931;" glyph-name="web_icon_transform" d="M170.667 504.775h682.667c31.403 0 56.889 25.429 56.889 56.775 0 1.707-0.853 3.186-0.967 4.836 0.228 16.043-5.689 32.085-17.92 44.316l-218.169 217.714c-24.121 24.064-63.147 24.064-87.268 0s-24.121-63.033 0-87.097l123.335-123.051h-538.567c-31.403 0-56.889-25.429-56.889-56.775 0-31.289 25.486-56.718 56.889-56.718zM853.333 391.225h-682.667c-31.403 0-56.889-25.429-56.889-56.775 0-1.707 0.853-3.186 0.967-4.836-0.228-16.043 5.689-32.085 17.92-44.316l218.169-217.714c24.121-24.064 63.147-24.064 87.268 0s24.121 63.033 0 87.097l-123.335 123.051h538.567c31.403 0 56.889 25.429 56.889 56.775s-25.486 56.718-56.889 56.718z" />
<glyph unicode="&#xe932;" glyph-name="web_icon_message_application" d="M397.964 866.537h-237.568c-36.771 0-66.839-29.324-66.839-65.117v-241.338c0-35.793 30.068-65.117 66.839-65.117h237.568c36.771 0 66.839 29.324 66.839 65.117v241.292c0 35.84-30.115 65.164-66.839 65.164zM863.418 866.537h-237.568c-36.771 0-66.839-29.324-66.839-65.117v-241.338c0-35.793 30.068-65.117 66.839-65.117h237.568c36.771 0 66.839 29.324 66.839 65.117v241.292c0 35.84-30.068 65.164-66.839 65.164zM863.418 401.082h-237.568c-36.771 0-66.839-29.324-66.839-65.117v-241.338c0-35.793 30.068-65.117 66.839-65.117h237.568c36.771 0 66.839 29.324 66.839 65.117v241.338c0 35.793-30.068 65.117-66.839 65.117zM397.964 401.082h-237.568c-36.771 0-66.839-29.324-66.839-65.117v-241.338c0-35.793 30.068-65.117 66.839-65.117h237.568c36.771 0 66.839 29.324 66.839 65.117v241.338c0 35.793-30.115 65.117-66.839 65.117z" />
<glyph unicode="&#xe933;" glyph-name="web_icon_message_approve" d="M890.415 289.885h-64.093c-6.33 1.164-37.376 7.215-55.575 17.641-9.681 5.539-17.361 21.085-25.46 37.562-6.47 13.126-13.777 27.974-23.785 41.565-20.201 27.462-76.521 88.529-92.16 105.332v105.984h4.841c70.144 0 127.209 57.065 127.209 127.255s-57.065 127.255-127.209 127.255h-244.41c-70.144 0-127.209-57.065-127.209-127.255s57.065-127.255 127.209-127.255h4.841v-105.984c-15.639-16.849-71.959-77.871-92.16-105.332-10.007-13.591-17.315-28.439-23.785-41.565-8.099-16.477-15.779-32.023-25.46-37.562-17.641-10.1-38.959-16.105-44.823-17.641h-74.799c-22.342 0-40.495-18.153-40.495-40.495v-165.329c0-22.342 18.153-40.495 40.495-40.495h756.829c22.342 0 40.495 18.153 40.495 40.495v165.329c0 22.342-18.153 40.495-40.495 40.495z" />
<glyph unicode="&#xe934;" glyph-name="web_icon_message_schedule" d="M733.091 724.34c30.534 0 55.296 24.762 55.296 55.296v55.296c0 30.487-24.762 55.296-55.296 55.296-30.487 0-55.249-24.762-55.249-55.296v-55.296c0-30.487 24.762-55.296 55.249-55.296zM290.909 724.34c30.487 0 55.296 24.762 55.296 55.296v55.296c0 30.487-24.809 55.249-55.296 55.249-30.534 0-55.296-24.716-55.296-55.296v-55.296c0.047-30.441 24.809-55.249 55.296-55.249zM608.628 474.252l-155.369-155.369-37.981 38.028c-21.597 21.597-56.599 21.597-78.15 0-21.597-21.551-21.597-56.599 0-78.15l78.15-78.15c21.597-21.597 56.599-21.597 78.15 0 1.955 1.955 2.7 4.375 4.329 6.47l189.068 189.021c21.597 21.597 21.597 56.599 0 78.15-21.597 21.597-56.599 21.597-78.196 0zM843.636 834.932v-55.296c0-61.068-49.524-110.545-110.545-110.545-61.068 0-110.545 49.478-110.545 110.545v55.296h-221.091v-55.296c0-61.068-49.524-110.545-110.545-110.545-61.068 0-110.545 49.524-110.545 110.545v55.296c-61.068 0-110.545-49.478-110.545-110.592v-607.977c0-61.021 49.478-110.545 110.545-110.545h663.273c61.068 0 110.545 49.524 110.545 110.545v607.977c0 61.114-49.478 110.592-110.545 110.592zM843.636 171.66c0-30.534-24.762-55.296-55.296-55.296h-552.681c-30.534 0-55.296 24.762-55.296 55.296v331.636c0 30.534 24.762 55.296 55.296 55.296h552.727c30.534 0 55.296-24.762 55.296-55.296v-331.636z" />
<glyph unicode="&#xe935;" glyph-name="web_icon_message_space" d="M814.545 332.148v232.727c0 112.175-90.484 205.452-203.311 227.747v4.468c0 51.153-44.637 93.044-99.235 93.044s-99.235-41.891-99.235-93.044v-4.422c-112.826-22.295-203.311-115.619-203.311-227.793v-232.727c-57.251-40.913-90.159-113.478-93.417-185.018h98.49v-0.605h594.944v0.605h98.49c-3.258 71.587-36.166 144.105-93.417 185.018zM508.928 5.865h6.423c58.042 0 106.31 40.82 113.292 93.137h-233.007c6.982-52.271 55.249-93.137 113.292-93.137z" />
<glyph unicode="&#xe936;" glyph-name="web_icon_message_subscribe" d="M533.876 177.152l9.030 38.4h-286.534c-12.847 0-23.273 10.426-23.273 23.273s10.426 23.273 23.273 23.273h303.011c17.082 34.723 41.239 65.35 71.354 89.321 0 0 2.188 1.443 6.051 3.77h-380.416c-12.847 0-23.273 10.426-23.273 23.273s10.426 23.273 23.273 23.273h512c2.141 0 4.096-0.698 6.097-1.21 33.559 3.91 71.121 3.351 111.011-6.144v441.297c0 42.775-35.142 77.452-78.522 77.452h-588.8c-43.38 0-78.522-34.676-78.522-77.452v-774.703c0-42.775 35.142-77.452 78.522-77.452h373.248c-37.004 44.963-59.206 102.214-59.206 164.631-0.047 9.821 0.605 19.456 1.676 28.998zM256.372 681.053h512c12.847 0 23.273-10.426 23.273-23.273s-10.426-23.273-23.273-23.273h-512c-12.847 0-23.273 10.426-23.273 23.273s10.426 23.273 23.273 23.273zM256.372 541.417h512c12.847 0 23.273-10.426 23.273-23.273s-10.426-23.273-23.273-23.273h-512c-12.847 0-23.273 10.426-23.273 23.273s10.426 23.273 23.273 23.273zM791.459 355.84c-102.726 0-185.996-83.503-185.996-186.461s83.27-186.508 185.996-186.508 185.996 83.503 185.996 186.461-83.27 186.508-185.996 186.508zM698.647 75.45c7.354 62.092 54.179 85.597 98.211 85.597-26.112 0-47.29 22.575-47.29 50.409s21.178 50.362 47.29 50.362c26.112 0 47.29-22.575 47.29-50.362 0-27.834-21.178-50.409-47.29-50.409 44.032 0 88.716-27.508 88.529-85.597h-186.74z" />
<glyph unicode="&#xe937;" glyph-name="web_icon_message_team" d="M969.263 155.276c2.467-8.518 4.375-18.944 5.958-31.232 1.536-12.241 2.327-24.809 2.327-37.283 0-12.521-0.884-24.39-2.7-35.375-1.955-11.078-4.655-19.363-8.425-24.902-2.467-3.631-9.681-7.354-21.597-11.124-12.009-3.584-26.903-6.982-44.73-10.054-17.873-3.119-37.655-5.911-59.113-8.797-21.457-2.746-43.194-5.027-65.024-6.842-21.876-1.815-42.915-3.398-63.209-4.655-20.294-1.164-38.167-1.769-53.527-1.769-15.407 0-32.954 0.652-53.015 1.769-19.921 1.303-40.727 2.839-62.231 4.655-21.597 1.815-42.775 3.863-63.767 5.911-20.806 2.188-40.076 4.655-57.67 7.354-17.455 2.839-32.209 5.539-44.218 8.285-12.009 2.839-19.503 5.399-22.621 7.866-4.934 4.236-8.937 17.175-12.055 38.633-2.979 21.551-2.048 49.152 2.839 82.897 2.979 19.642 10.845 34.351 23.552 44.172 12.521 9.821 27.555 17.827 44.73 24.017 17.175 6.097 34.909 11.497 53.015 16.012 18.106 4.655 34.257 11.497 48.5 20.806 10.985 7.354 19.549 14.057 25.367 20.247 5.818 6.097 10.1 12.288 12.94 18.339 2.7 6.191 4.143 12.66 4.143 19.363s-0.372 14.336-0.931 22.993c-1.303 12.241-5.539 21.923-12.94 29.044-7.354 6.935-15.36 13.964-24.064 20.666-4.282 3.584-8.145 8.89-11.497 15.593-3.351 6.749-6.33 13.591-8.797 20.294-2.467 7.354-4.934 15.639-7.354 24.809-3.631 1.303-7.354 3.119-10.985 5.539-3.119 2.467-6.33 6.191-9.681 11.124-3.491 4.887-6.749 11.59-9.681 20.294-3.119 8.518-4.375 16.663-3.724 24.39 0.652 7.633 2.188 13.964 4.655 18.851 2.467 6.051 5.818 11.636 10.1 16.524-0.512 19.642 0.372 39.657 2.839 59.764 2.467 17.175 6.33 35.095 11.497 53.853 5.167 18.711 13.312 36.166 24.436 52.038 9.821 14.708 20.945 26.717 33.233 35.887s24.809 16.384 37.748 21.69c12.94 5.167 25.879 8.657 38.772 10.566 12.94 1.815 25.228 2.746 36.864 2.746 31.418 0 59.345-6.47 84.061-19.363 24.576-12.8 42.682-26.624 54.458-41.332 13.452-16.663 23.505-35.095 29.975-55.808 6.47-20.527 11.124-39.61 14.243-57.437 3.072-20.899 4.282-41.705 3.724-62.604 2.979-2.467 5.818-5.818 8.285-10.054 1.815-3.77 3.491-8.518 5.027-14.336s1.676-13.033 0.512-21.551c-1.303-11.078-3.77-19.968-7.401-26.717-3.724-6.749-7.401-12.009-11.124-15.639-4.282-4.375-9.216-7.121-14.755-8.378-2.467-9.169-4.887-17.408-7.354-24.809-2.467-6.703-5.539-13.545-9.309-20.294-3.631-6.703-7.633-11.59-11.916-14.708-4.934-4.282-9.449-8.006-13.452-10.985-4.003-3.072-7.494-6.284-10.612-9.681-3.072-3.351-5.679-7.215-7.773-11.497-2.188-4.375-3.863-9.542-5.167-15.779-1.164-7.866-1.676-16.012-1.303-24.39 0.279-8.239 2.188-16.384 5.958-24.25 3.724-8.006 9.681-15.779 17.967-23.133s19.782-13.777 34.676-19.223c12.94-5.585 27.183-10.333 42.775-14.336 15.779-4.003 30.767-8.797 45.242-14.196 14.476-5.539 27.415-12.66 38.772-21.178 11.45-8.751 19.596-19.735 24.529-33.28zM477.463 324.701c-1.303-6.842-2.839-12.009-4.655-15.639-1.815-3.724-6.051-7.727-12.94-12.009-15.919-9.821-33.233-17.78-51.619-23.878-18.479-6.191-36.212-12.893-53.155-20.294-16.803-7.354-31.558-17.036-44.218-29.044-12.567-12.009-20.433-28.905-23.552-50.967-1.164-6.842-1.955-13.452-2.327-19.875-0.233-6.47-0.791-12.381-1.303-17.92-0.652-1.164-1.303-2.327-1.955-3.212-0.512-0.931-1.164-1.955-1.815-3.212-24.064 1.908-48.221 3.956-72.937 6.47-24.576 2.467-47.197 5.306-67.77 8.239-20.573 3.119-38.028 6.191-52.131 9.309-14.243 2.979-23.133 6.097-26.764 9.169-5.539 4.282-9.681 17.175-12.428 38.633-2.839 21.551-1.815 49.431 3.212 83.782 2.979 18.991 10.845 33.559 23.412 43.799 12.66 10.054 27.508 18.106 44.87 23.878 17.175 5.818 34.769 11.264 53.015 16.151 18.106 4.934 34.257 11.636 48.361 20.294 11.124 7.354 19.503 14.057 25.46 20.154 5.818 6.191 9.961 12.521 12.428 18.944 2.467 6.47 3.631 13.033 3.631 19.782 0 6.703-0.233 14.057-0.931 22.063-1.164 12.288-5.306 21.969-12.428 29.044-7.121 6.982-14.848 14.196-23.552 21.551-4.701 2.979-8.844 7.866-12.195 14.615-3.398 6.703-6.33 13.545-8.797 20.247-2.467 7.354-4.934 15.639-7.401 24.809-3.724 1.303-7.354 3.072-11.124 5.539-3.072 2.42-6.191 6.191-9.681 11.078-3.351 4.934-6.563 11.636-9.681 20.294-2.979 8.518-4.282 16.663-3.631 24.25 0.652 7.773 2.048 14.336 4.655 19.875 2.467 6.703 5.818 12.241 10.054 16.524-0.605 19.689 0.279 39.657 2.746 59.811 2.467 16.663 6.47 34.49 12.009 53.481 5.585 18.944 13.871 36.119 24.995 51.479 9.821 14.755 20.945 26.764 33.233 35.933s24.716 16.384 37.376 21.69c12.521 5.12 25.321 8.611 38.26 10.566 12.94 1.815 25.507 2.7 37.748 2.7 30.813 0 58.461-6.47 83.037-19.363 24.716-12.8 43.055-26.577 55.482-41.425 7.866-10.333 13.079-20.015 15.127-28.951 2.188-8.89 5.027-19.223 8.797-30.86-11.636-6.703-24.204-16.663-37.376-29.929-13.172-13.172-24.716-26.484-34.676-40.029-12.288-17.175-21.457-36.166-27.648-57.065-6.097-20.806-10.752-40.169-13.871-57.996-2.979-21.411-4.515-42.822-4.515-64.419-4.887-5.585-8.657-11.636-11.124-18.339-2.467-6.191-4.003-13.452-4.655-21.69-0.512-8.239 0.652-17.315 3.724-27.089 3.119-10.473 6.47-18.479 10.1-23.878 3.77-5.539 7.121-9.821 10.24-12.893 3.724-3.724 7.354-6.191 11.124-7.354 2.467-9.821 4.934-19.13 7.354-27.648 2.467-7.354 5.306-14.848 8.657-22.575 3.491-7.633 7.633-13.312 12.567-17.036 4.282-3.631 7.633-6.749 10.054-9.169 2.467-2.467 4.515-4.748 6.097-6.842 1.536-2.188 2.467-5.167 2.7-8.751 0.279-3.863 1.024-8.751 2.327-14.801z" />
<glyph unicode="&#xe938;" glyph-name="web_icon_sendout2" d="M960.819 465.613l-883.917 395.725c-6.195 2.406-12.954 1.382-18.125-2.458-5.222-3.994-8.038-10.342-7.424-16.845l34.56-326.912 579.994-67.328-580.096-66.97-34.56-326.861c-0.614-6.502 2.202-12.851 7.424-16.794 3.328-2.509 7.27-3.789 11.315-3.789 2.304 0 4.659 0.41 6.861 1.331l883.917 395.776c7.27 2.765 12.032 9.779 12.032 17.51 0 7.782-4.762 14.797-11.981 17.613v0 0z" />
<glyph unicode="&#xe939;" glyph-name="web_icon_notremind" d="M793.372 276.878h11.548c81.806 0 95.801-70.542 103.026-112.754h-640.796l-54.158-54.556c-11.264-11.378-29.582-11.378-40.846 0s-11.264 29.753 0 41.131l632.775 637.497c11.264 11.378 29.525 11.378 40.846 0 11.264-11.378 11.264-29.753 0-41.131l-93.468-94.208c25.6-43.236 41.074-93.696 41.074-148.48v-227.499zM225.906 299.406v205.028c0 142.165 99.271 258.958 228.58 280.178-0.455 3.129-1.707 5.916-1.707 9.159v48.526c0 33.564 25.486 60.7 56.889 60.7s56.889-27.193 56.889-60.7v-48.583c0-3.243-1.252-6.030-1.707-9.102 37.262-6.087 71.509-20.878 102.116-41.188l-441.060-444.018zM202.183 275.57l-86.13-86.756c8.875 37.831 28.672 81.18 86.13 86.756zM509.497-6.997c-58.311 0-106.098 49.607-114.176 114.005h228.352c-8.078-64.398-55.865-114.005-114.176-114.005z" />
<glyph unicode="&#xe93a;" glyph-name="web_icon_message_dynamic" d="M976.756 507.066c1.489 42.915-5.492 86.575-23.924 128.791-34.909 80.012-96.256 132.655-167.61 166.307-76.8 45.428-171.008 72.518-273.222 72.518-155.741 0-293.236-62.371-377.716-157.789-17.361-18.758-32.256-39.796-45.009-62.79-3.537-6.284-6.889-12.614-10.054-19.037-2.374-5.027-4.748-10.054-6.889-15.313-12.102-28.486-20.294-58.368-23.692-89.46-0.419-3.956-0.465-7.82-0.745-11.776-0.512-7.354-1.35-14.615-1.35-22.016 0-4.049 0.605-8.006 0.745-12.009 0.14-2.979 0.326-6.004 0.559-8.983 7.494-110.918 73.402-209.036 173.661-274.246 11.171-22.947 9.635-48.128-6.051-76.474-17.501-31.651-46.964-69.073-13.638-95.697 26.717-21.271 68.143 6.47 98.723 20.48 37.283 17.082 71.494 42.636 103.331 68.98 3.537 2.932 7.075 5.492 10.612 8.192 31.465-5.446 64-8.425 97.466-8.425 257.071 0 465.455 169.332 465.455 378.182 0.047 3.584-0.512 7.028-0.652 10.566zM279.273 428.591c-32.116 0-58.182 26.065-58.182 58.182s26.065 58.182 58.182 58.182 58.182-26.065 58.182-58.182c0-32.116-26.065-58.182-58.182-58.182zM492.591 428.591c-32.116 0-58.182 26.065-58.182 58.182s26.065 58.182 58.182 58.182 58.182-26.065 58.182-58.182c0-32.116-26.065-58.182-58.182-58.182zM725.318 428.591c-32.116 0-58.182 26.065-58.182 58.182s26.065 58.182 58.182 58.182 58.182-26.065 58.182-58.182c0-32.116-26.065-58.182-58.182-58.182z" />
<glyph unicode="&#xe93b;" glyph-name="web_icon_download" d="M853.333 448h-56.889c-31.403 0-56.889-25.486-56.889-56.889s25.486-56.889 56.889-56.889h56.889v-170.667h-682.667v170.667h56.889c31.403 0 56.889 25.486 56.889 56.889s-25.486 56.889-56.889 56.889h-56.889c-62.862 0-113.778-50.916-113.778-113.778v-170.667c0-62.862 50.916-113.778 113.778-113.778h682.667c62.862 0 113.778 50.916 113.778 113.778v170.667c0 62.862-50.916 113.778-113.778 113.778zM449.479 347.477c1.82-10.809 6.428-21.276 14.848-29.753 13.028-13.028 30.72-17.465 47.673-15.189 16.953-2.276 34.645 2.162 47.673 15.189 8.306 8.306 12.459 18.716 14.564 29.468l131.47 131.47c22.244 22.244 22.244 58.254 0 80.441s-58.254 22.244-80.441 0l-56.377-56.32v286.549c0 31.403-25.486 56.889-56.889 56.889s-56.889-25.486-56.889-56.889v-286.549l-56.32 56.32c-22.244 22.244-58.254 22.244-80.441 0s-22.244-58.254 0-80.441l131.129-131.186z" />
<glyph unicode="&#xe93c;" glyph-name="web_icon_open" d="M852.366 193.365l-120.661 120.661c-0.626 0.626-1.479 0.796-2.105 1.422 79.701 121.401 66.276 285.98-40.448 392.704-122.197 122.197-320.284 122.197-442.482 0s-122.197-320.284 0-442.482c110.251-110.251 281.771-120.036 404.139-31.346 0.228-0.228 0.284-0.512 0.512-0.74l120.661-120.661c22.187-22.187 58.254-22.187 80.441 0 22.13 22.187 22.13 58.197-0.057 80.441zM327.111 346.112c-77.767 77.824-77.767 204.004 0 281.828s203.833 77.824 281.6 0c77.767-77.824 77.767-204.004 0-281.828s-203.833-77.824-281.6 0z" />
<glyph unicode="&#xe93d;" glyph-name="web_icon_preview" d="M512 789.561c-302.478 0-455.339-341.561-455.339-341.561s148.651-341.561 455.339-341.561c273.294 0 455.339 341.561 455.339 341.561s-131.982 341.561-455.339 341.561zM512 220.331c-125.497 0-227.271 101.945-227.271 227.669s101.717 227.669 227.271 227.669c125.497 0 227.271-101.945 227.271-227.669s-101.774-227.669-227.271-227.669zM512 561.778c-62.862 0-113.778-50.916-113.778-113.778s50.916-113.778 113.778-113.778c62.862 0 113.778 50.916 113.778 113.778s-50.916 113.778-113.778 113.778z" />
<glyph unicode="&#xe93e;" glyph-name="web_icon_message_group" d="M977.129 765.021v0c-0.14 5.865-0.233 10.985-0.233 15.267h-167.936c3.258 71.866 1.257 127.628 1.257 127.628-0.093 2.886-2.56 5.26-5.446 5.26h-290.956c-0.698 0-1.396-0.047-2.095-0.14-0.698 0.093-1.396 0.14-2.095 0.14h-291.7c-2.886 0-5.353-2.374-5.446-5.26 0 0-2.001-55.761 1.257-127.628h-166.959c-0.14-0.047-0.233-2.42-0.233-5.306v-55.948c0-2.886 0.14-5.26 0.326-5.26 1.676-54.179 10.333-126.65 46.406-200.844 30.58-62.929 74.612-115.572 130.886-156.486 46.592-33.885 99.793-58.275 158.348-72.844 33.792-36.026 67.119-55.901 96.209-63.907v-73.961c-4.143-21.969-29.37-96.396-205.219-96.396h-22.202c-2.886 0-5.26-2.374-5.26-5.26v-55.948c0-2.886 2.374-5.26 5.26-5.26h521.402c2.886 0 5.26 2.374 5.26 5.26v55.948c0 2.886-2.374 5.26-5.26 5.26h-22.109c-206.289 0-205.359 97.187-205.359 97.187 0.047 2.886 0.047 7.633 0.047 10.519v62.65c29.091 7.959 61.766 27.788 95.372 63.628 58.927 14.522 112.361 39.052 159.232 73.123 56.273 40.913 100.259 93.556 130.839 156.486 49.199 101.236 47.383 199.354 46.406 252.090zM153.041 541.975c-30.022 61.859-37.888 124.044-39.61 171.799h104.867c1.815-18.525 4.096-36.771 6.982-53.946 17.687-105.286 41.984-198.284 88.017-280.343-70.284 35.607-125.533 91.043-160.256 162.49zM575.209 537.088l-73.402 36.212-73.402-36.212 10.054 84.573-55.389 62.185 79.593 16.058 39.145 74.659 39.145-74.659 79.593-16.058-55.389-62.231 10.054-84.527zM870.912 541.975c-34.909-71.866-90.577-127.535-161.513-163.142 46.173 82.199 70.284 175.43 88.017 280.995 2.886 17.175 5.167 35.421 6.982 53.946h106.17c-1.769-47.756-9.635-109.987-39.657-171.799z" />
</font>
</defs>
</svg>
